<?xml version="1.0" standalone="no"?><!DOCTYPE svg PUBLIC "-//W3C//DTD SVG 1.1//EN" "http://www.w3.org/Graphics/SVG/1.1/DTD/svg11.dtd"><svg t="1502336301871" class="icon" style="" viewBox="0 0 1024 1024" version="1.1" xmlns="http://www.w3.org/2000/svg" p-id="30140" xmlns:xlink="http://www.w3.org/1999/xlink" width="200" height="200"><defs><style type="text/css"></style></defs><path d="M746.140645 829.221852h40.999786c23.741727 0 43.154869-14.381545 43.154869-32.007995s-19.413142-32.006971-43.154869-32.006971h-40.999786c-23.747867 0-43.161009 14.380522-43.161009 32.006971 0.364297 17.625426 19.413142 32.007995 43.161009 32.007995z m0-190.98066h40.999786c23.741727 0 43.154869-14.381545 43.154869-32.007994 0-17.621333-19.413142-32.006971-43.154869-32.006971h-40.999786c-23.747867 0-43.161009 14.385639-43.161009 32.006971 0.364297 17.626449 19.413142 32.007995 43.161009 32.007994z m-254.643608 0h41.36306c23.736611 0 43.154869-14.381545 43.154869-32.007994 0-17.621333-19.418258-32.006971-43.154869-32.006971h-41.36306c-23.736611 0-43.154869 14.385639-43.154869 32.006971 0 17.626449 19.418258 32.007995 43.154869 32.007994z m-254.637468 0h40.999786c23.741727 0 43.166125-14.381545 43.166126-32.007994 0-17.621333-19.424398-32.006971-43.166126-32.006971h-40.999786c-23.736611 0-43.161009 14.385639-43.161009 32.006971 0 17.626449 19.067264 32.007995 43.161009 32.007994z m254.637468 190.98066h41.36306c23.736611 0 43.154869-14.381545 43.154869-32.007995s-19.418258-32.006971-43.154869-32.006971h-41.36306c-23.736611 0-43.154869 14.380522-43.154869 32.006971s19.418258 32.007995 43.154869 32.007995z m-254.637468 0h40.999786c23.741727 0 43.166125-14.381545 43.166126-32.007995s-19.424398-32.006971-43.166126-32.006971h-40.999786c-23.736611 0-43.161009 14.380522-43.161009 32.006971s19.067264 32.007995 43.161009 32.007995z" fill="#5CACF0" p-id="30141"></path><path d="M833.892221 128.243803h-64.373123V35.091216c-0.01842-17.273409-14.018272-31.273261-31.293727-31.29168-16.899902 0-30.93557 13.672394-31.29168 30.92329v93.880157H319.942823V35.091216c-0.017396-17.273409-14.014178-31.273261-31.287587-31.29168-17.080004 0-30.927383 13.84431-30.930453 30.92329v93.880157h-67.618027c-103.591333-0.35918-187.745988 72.297606-187.745989 209.32547v492.73933c0 98.54234 74.81187 179.826622 169.762405 188.818413l661.769049 0.714268c103.586217 0 187.747012-84.882226 187.747012-189.533704V318.145897c0-104.662735-84.160795-189.902094-187.747012-189.902094z m124.08918 721.122854c0 59.34562-51.427276 107.182115-114.370841 107.182115H180.758853c-63.301721 0-114.382097-48.199769-114.382096-107.182115V446.908516h891.962801l-0.358157 402.458141z m0-549.923727v83.802638H66.375733v-83.802638c0-52.510958 46.043662-107.176998 127.322827-107.176998h64.026223v95.671966c0.363274 16.536628 14.376429 30.209022 31.287587 30.209022 17.276479-0.013303 31.277354-14.017248 31.286563-31.293726v-94.587262h386.991892v95.671966c0.363274 16.536628 14.387685 30.209022 31.298843 30.209022 17.274432-0.01842 31.274284-14.018272 31.293727-31.293726v-94.587262h60.776202c62.943564-0.001023 133.073808 46.387493 127.321804 107.176998z" fill="#5CACF0" p-id="30142"></path></svg>